<?xml version="1.0" encoding="UTF-8"?>
<!DOCTYPE svg PUBLIC "-//W3C//DTD SVG 1.1//EN" "http://www.w3.org/Graphics/SVG/1.1/DTD/svg11.dtd">
<!-- Creator: CorelDRAW -->
<svg xmlns="http://www.w3.org/2000/svg" xml:space="preserve" width="128.632mm" height="120.534mm" version="1.1" style="shape-rendering:geometricPrecision; text-rendering:geometricPrecision; image-rendering:optimizeQuality; fill-rule:evenodd; clip-rule:evenodd"
viewBox="0 0 2920.99 2737.1"
 xmlns:xlink="http://www.w3.org/1999/xlink"
 xmlns:xodm="http://www.corel.com/coreldraw/odm/2003">
 <defs>
  <style type="text/css">
   <![CDATA[
    .fil2 {fill:#DF7C09}
    .fil0 {fill:#EAA416}
    .fil1 {fill:white;fill-rule:nonzero}
   ]]>
  </style>
 </defs>
 <g id="Capa_x0020_1">
  <metadata id="CorelCorpID_0Corel-Layer"/>
  <g id="_2923401392896">
   <path class="fil0" d="M1460.49 0c545.44,0 987.59,442.15 987.59,987.57 0,545.42 -442.15,987.57 -987.59,987.57 -545.41,0 -987.57,-442.15 -987.57,-987.57 0,-545.42 442.16,-987.57 987.57,-987.57zm0 70.16c506.69,0 917.43,410.73 917.43,917.42 0,506.69 -410.74,917.44 -917.43,917.44 -506.68,0 -917.43,-410.75 -917.43,-917.44 0,-506.68 410.75,-917.42 917.43,-917.42z"/>
   <path class="fil0" d="M1460.49 122.48c477.79,0 865.11,387.32 865.11,865.1 0,477.8 -387.32,865.12 -865.11,865.12 -477.78,0 -865.11,-387.32 -865.11,-865.12 0,-477.78 387.33,-865.1 865.11,-865.1z"/>
   <path class="fil1" d="M1786.11 643.96c-68.03,-60.71 -152.01,-96.41 -251.91,-107.1l0 -127.44 -147.42 0 0 130.21c-57.06,9.02 -109.51,27.92 -157.35,56.62 -69.76,41.86 -104.65,104.63 -104.65,188.36 1.09,143.99 113.28,226.59 336.54,247.79 64.74,6.71 113.02,18.43 144.82,35.16 31.81,16.74 47.17,42.98 46.05,78.71 -1.11,35.71 -18.97,62.51 -53.57,80.38 -34.61,17.84 -75.35,26.77 -122.23,26.77 -121.66,-2.24 -218.23,-42.98 -289.66,-122.21l-90.41 122.21c73.54,82.65 170.38,131.65 290.46,147.07l0 165.3 147.42 0 0 -162.89c78.01,-7.69 142.45,-30.72 193.34,-69.12 63.62,-48 95.98,-111.06 97.11,-189.19 0,-50.23 -10.32,-92.65 -30.97,-127.26 -20.66,-34.6 -50.23,-60.57 -88.75,-77.85 -38.49,-17.29 -74.79,-29.57 -108.81,-36.83 -34.04,-7.24 -74.52,-13.11 -121.4,-17.57 -118.32,-11.17 -178.04,-46.34 -179.14,-105.49 0,-32.37 15.89,-57.2 47.71,-74.51 31.82,-17.3 74.51,-25.39 128.08,-24.27 89.31,0 161.86,25.66 217.68,77l97.07 -113.84z"/>
   <path class="fil2" d="M695.07 1017.01c0,-422.74 342.68,-765.42 765.42,-765.42 422.74,0 765.42,342.68 765.42,765.42 0,422.74 -342.68,765.42 -765.42,765.42 -422.74,0 -765.42,-342.68 -765.42,-765.42zm1630.52 -29.44c0,-477.78 -387.32,-865.1 -865.11,-865.1 -477.79,0 -865.11,387.32 -865.11,865.1 0,477.8 387.32,865.12 865.11,865.12 477.79,0 865.11,-387.32 865.11,-865.12z"/>
   <path class="fil2" d="M2653.9 906.53l267.09 1264.42 -641.23 538.22 -4.2 27.93 -774.86 0 202.83 -650.96 724.75 -425.9 24.11 281.01 -316.68 298.57 -112.57 296.44 165.79 -230.11 357.93 -311.18 -61.3 -707.52c0,0 -27.03,-305.46 168.34,-380.92z"/>
   <path class="fil2" d="M267.1 906.53l-267.09 1264.42 641.24 538.22 4.2 27.93 774.86 0 -202.83 -650.96 -724.75 -425.9 -24.11 281.01 316.67 298.55 112.58 296.45 -165.81 -230.11 -357.93 -311.18 61.31 -707.52c0,0 27.01,-305.46 -168.34,-380.92z"/>
  </g>
 </g>
</svg>
